<?xml version="1.0" encoding="utf-8"?>
<!-- Generator: Adobe Illustrator 25.2.0, SVG Export Plug-In . SVG Version: 6.00 Build 0)  -->
<svg version="1.1" xmlns="http://www.w3.org/2000/svg" xmlns:xlink="http://www.w3.org/1999/xlink" x="0px" y="0px"
	 viewBox="0 0 3000 3000" style="enable-background:new 0 0 3000 3000;" xml:space="preserve">
<style type="text/css">
	.st0{fill:#FFFFFF;}
	.st1{fill:#E2E8F4;}
	.st2{fill:url(#SVGID_1_);}
	.st3{fill:#5170ED;}
	.st4{fill:#A4B0F6;}
	.st5{fill:#1A37B3;}
	.st6{opacity:0.75;fill:#A4B0F6;}
	.st7{fill:#A6D7F8;}
	.st8{fill:#FF7C06;}
	.st9{fill:#5170EF;}
	.st10{fill:#304AD3;}
	.st11{fill:url(#SVGID_2_);}
	.st12{fill:#1A37B5;}
	.st13{opacity:0;fill:#FFFFFF;}
	.st14{opacity:0.0556;fill:#FCFDFF;}
	.st15{opacity:0.1111;fill:#F9FBFE;}
	.st16{opacity:0.1667;fill:#F5F8FE;}
	.st17{opacity:0.2222;fill:#F2F6FD;}
	.st18{opacity:0.2778;fill:#EFF4FD;}
	.st19{opacity:0.3333;fill:#ECF2FC;}
	.st20{opacity:0.3889;fill:#E9F0FC;}
	.st21{opacity:0.4444;fill:#E6EEFB;}
	.st22{opacity:0.5;fill:#E3ECFB;}
	.st23{opacity:0.5556;fill:#DFE9FB;}
	.st24{opacity:0.6111;fill:#DCE7FA;}
	.st25{opacity:0.6667;fill:#D9E5FA;}
	.st26{opacity:0.7222;fill:#D6E3F9;}
	.st27{opacity:0.7778;fill:#D3E1F9;}
	.st28{opacity:0.8333;fill:#D0DFF8;}
	.st29{opacity:0.8889;fill:#CCDCF8;}
	.st30{opacity:0.9444;fill:#C9DAF7;}
	.st31{fill:#C6D8F7;}
	.st32{fill:url(#SVGID_3_);}
	.st33{fill:url(#SVGID_4_);}
	.st34{fill:#304AD5;}
	.st35{fill:#4E8FB9;}
	.st36{fill:#71B1DE;}
	.st37{fill:url(#SVGID_5_);}
	.st38{fill:#FFC8BD;}
	.st39{fill:#F7AAA1;}
	.st40{fill:url(#SVGID_6_);}
	.st41{fill:url(#SVGID_7_);}
</style>
<g id="Layer_1">
	<rect class="st0" width="3000" height="3000"/>
	<path class="st1" d="M807.04,2453.84c-188.41-6.42-364.87-97.66-475.3-250.45c-54.66-75.62-94.45-167.74-92.39-274.72
		c6.33-329.15,122.05-333.99,134.71-606.18S127.68,902.69,171.99,605.19S471.42,303.85,622.9,309.03
		c289.97,9.92,444.3,378.08,855.74,447.71s745.55-160.68,969.88-70.72c197.3,79.12,413.66,337.89,330.03,575.87
		c-83.63,237.97-155.43,361.59-130.11,462.87c25.32,101.28,235,248.06,42.55,547.43C2448.52,2649.35,1319.22,2471.3,807.04,2453.84z
		"/>
</g>
<g id="layer_2">
	<g>
		<g>
			<linearGradient id="SVGID_1_" gradientUnits="userSpaceOnUse" x1="2145.9358" y1="868.2629" x2="1224.7384" y2="2463.8235">
				<stop  offset="0.152" style="stop-color:#5170ED"/>
				<stop  offset="0.4177" style="stop-color:#4157C1"/>
				<stop  offset="0.8116" style="stop-color:#2C3485"/>
				<stop  offset="1" style="stop-color:#24276E"/>
			</linearGradient>
			<path class="st2" d="M2528.83,2237.62H841.85c-18.35,0-33.22-14.87-33.22-33.22V1127.69c0-18.35,14.87-33.22,33.22-33.22h1686.98
				c18.35,0,33.22,14.87,33.22,33.22V2204.4C2562.05,2222.74,2547.17,2237.62,2528.83,2237.62z"/>
			<rect x="866.35" y="1156.58" class="st0" width="1637.98" height="1018.93"/>
			<path class="st3" d="M2685.63,2340.09H685.05c-46.01,0-83.32-37.3-83.32-83.32V2222h2167.21v34.77
				C2768.94,2302.78,2731.64,2340.09,2685.63,2340.09z"/>
			<g>
				<rect x="866.35" y="1156.58" class="st4" width="1637.98" height="77.24"/>
				<g>
					<ellipse class="st5" cx="916.91" cy="1193.28" rx="13.1" ry="12.84"/>
					<ellipse class="st5" cx="959.8" cy="1193.28" rx="13.1" ry="12.84"/>
					<ellipse class="st5" cx="1002.69" cy="1193.28" rx="13.1" ry="12.84"/>
				</g>
			</g>
			<path class="st4" d="M601.73,2230.76c0,3.34,0.21,6.62,0.5,9.89h2166.21c0.29-3.26,0.5-6.55,0.5-9.89V2222H601.73V2230.76z"/>
			<path class="st5" d="M1817.26,2296.58h-263.85c-6.08,0-11.02-4.93-11.02-11.02v-9.04c0-6.08,4.93-11.02,11.02-11.02h263.85
				c6.08,0,11.02,4.93,11.02,11.02v9.04C1828.28,2291.65,1823.35,2296.58,1817.26,2296.58z"/>
			<path class="st5" d="M1730.25,1146.81h-89.83c-6.08,0-11.02-4.93-11.02-11.02v-9.04c0-6.08,4.93-11.02,11.02-11.02h89.83
				c6.08,0,11.02,4.93,11.02,11.02v9.04C1741.27,1141.87,1736.34,1146.81,1730.25,1146.81z"/>
		</g>
		<g>
			<path class="st6" d="M2372.46,1954.45H1565.8c-22.77,0-41.23-18.46-41.23-41.23v-253.27c0-22.77,18.46-41.23,41.23-41.23h806.66
				c22.77,0,41.23,18.46,41.23,41.23v253.27C2413.7,1935.99,2395.23,1954.45,2372.46,1954.45z"/>
		</g>
		<g>
			<path class="st7" d="M2089.8,1367.96h-562.84c-5.05,0-9.15,4.1-9.15,9.15v0c0,5.05,4.1,9.15,9.15,9.15h562.84
				c5.05,0,9.15-4.1,9.15-9.15v0C2098.95,1372.06,2094.85,1367.96,2089.8,1367.96z"/>
			<path class="st7" d="M2397.71,1367.96h-233.9c-5.05,0-9.15,4.1-9.15,9.15v0c0,5.05,4.1,9.15,9.15,9.15h233.9
				c5.05,0,9.15-4.1,9.15-9.15v0C2406.86,1372.06,2402.77,1367.96,2397.71,1367.96z"/>
			<path class="st7" d="M1834.87,1430.97h562.84c5.05,0,9.15,4.1,9.15,9.15l0,0c0,5.05-4.1,9.15-9.15,9.15h-562.84
				c-5.05,0-9.15-4.1-9.15-9.15l0,0C1825.72,1435.07,1829.82,1430.97,1834.87,1430.97z"/>
			<path class="st7" d="M1526.96,1430.97h233.9c5.05,0,9.15,4.1,9.15,9.15l0,0c0,5.05-4.1,9.15-9.15,9.15h-233.9
				c-5.05,0-9.15-4.1-9.15-9.15l0,0C1517.81,1435.07,1521.91,1430.97,1526.96,1430.97z"/>
			<path class="st7" d="M2160.1,1304.96h-633.14c-5.05,0-9.15,4.1-9.15,9.15l0,0c0,5.05,4.1,9.15,9.15,9.15h633.14
				c5.05,0,9.15-4.1,9.15-9.15l0,0C2169.25,1309.05,2165.16,1304.96,2160.1,1304.96z"/>
			<path class="st7" d="M2397.71,1304.96h-163.59c-5.05,0-9.15,4.1-9.15,9.15l0,0c0,5.05,4.1,9.15,9.15,9.15h163.59
				c5.05,0,9.15-4.1,9.15-9.15l0,0C2406.86,1309.05,2402.77,1304.96,2397.71,1304.96z"/>
		</g>
	</g>
	<g>
		<path class="st8" d="M2190.7,1487.13V1431c0-4.57-3.71-8.28-8.28-8.28s-8.28,3.7-8.28,8.28v63.66c0,4.57,3.71,8.28,8.28,8.28
			c18.6,0,33.74,15.14,33.74,33.74c0,18.6-15.14,33.74-33.74,33.74c-15.41,0-28.85-10.41-32.68-25.3
			c-1.14-4.43-5.64-7.09-10.08-5.95c-4.43,1.14-7.09,5.65-5.95,10.08c5.72,22.22,25.75,37.73,48.71,37.73
			c27.73,0,50.29-22.56,50.29-50.29C2232.72,1511.78,2214.5,1491.1,2190.7,1487.13z"/>
		<g>
			<g>
				<g>
					<path class="st5" d="M2217.96,1424.62h-79.85c-2.89,0-5.44-1.93-6.22-4.71l-176.82-630.28c-0.54-1.92-0.16-3.97,1.02-5.58
						c1.18-1.6,3.04-2.57,5.03-2.62l424.94-11.41c2.05-0.04,3.97,0.85,5.23,2.44s1.71,3.69,1.19,5.65l-168.26,641.69
						C2223.46,1422.64,2220.9,1424.62,2217.96,1424.62z M2143,1411.71h69.98l164.82-628.54l-408.05,10.95L2143,1411.71z"/>
				</g>
				<g>
					<path class="st5" d="M2360.56,708.96c-0.77,0-1.55-0.09-2.33-0.29L682.66,285.29L385.84,663.39c-3.23,4.12-9.19,4.84-13.31,1.6
						c-4.12-3.23-4.84-9.19-1.6-13.31l300.63-382.94c2.31-2.95,6.15-4.26,9.78-3.34l1681.55,424.88c5.07,1.28,8.15,6.44,6.87,11.51
						C2368.66,706.1,2364.8,708.96,2360.56,708.96z"/>
					<path class="st9" d="M793.04,709.82l-213.57,0c-1.83,0-3.69-0.24-5.36-0.94c-6.11-2.55-8.93-8.45-7.56-13.92l105.12-418.25
						c1.37-5.45,6.6-9.31,12.62-9.31h0.05c6.01,0,11.24,3.83,12.65,9.26l108.64,417.96c0.43,1.66,0.62,3.4,0.28,5.09
						C804.68,705.88,799.11,709.82,793.04,709.82z M595.63,685.61H776.5l-91.95-353.75L595.63,685.61z"/>
					<g>
						<path class="st9" d="M772.23,2383.32H601.6V755.6h170.62V2383.32z M623.4,2361.52h127.03V777.4H623.4V2361.52z"/>
						<polygon class="st9" points="754.41,2387.81 604.78,2227.13 726.62,2095.44 603.07,1961.99 725.93,1829.25 602.02,1701.32 
							734.59,1564.44 601.74,1427.27 723.22,1301.84 606.31,1181.13 730.29,1053.11 599.93,918.5 745.28,768.42 760.94,783.59 
							630.27,918.5 760.64,1053.11 636.66,1181.13 753.56,1301.84 632.09,1427.27 764.93,1564.44 632.37,1701.32 755.94,1828.91 
							632.78,1961.99 756.32,2095.44 634.52,2227.09 770.36,2372.95 						"/>
					</g>
					<g>
						<path class="st9" d="M368.76,822.28v-177.4l2025.65,45.29v94.63L368.76,822.28z M388,664.55v138.13l1987.18-36.77v-56.94
							L388,664.55z"/>
						<polygon class="st9" points="620.67,817.89 400.1,662.43 410.97,647 620.64,794.78 820.83,653.12 1006.13,784.25 
							1176.87,663.42 1343.46,781.31 1499.67,670.75 1629.68,762.76 1755.64,685.72 1876.71,759.26 1992.34,689.57 2114.78,764.09 
							2237.32,689.51 2365.75,767.78 2355.93,783.89 2237.31,711.6 2114.78,786.18 1992.29,711.63 1876.67,781.31 1755.67,707.82 
							1628.92,785.34 1499.67,693.87 1343.46,804.42 1176.87,686.53 1006.13,807.36 820.83,676.23 						"/>
						<polygon class="st5" points="563.52,817.83 806.08,813.05 806.08,655.96 563.52,650.18 						"/>
					</g>
				</g>
				<path class="st9" d="M2123.86,1422.5c0.04,5.57,0.96,11.36,3.03,17.32c7.6,21.85,27.73,37.53,50.85,38.46
					c32.1,1.29,58.53-24.35,58.53-56.16c0-0.05,0-0.1,0-0.15c-0.02-8.15-6.91-14.64-15.07-14.64h-82.25
					C2130.59,1407.34,2123.8,1414.14,2123.86,1422.5z"/>
			</g>
			<g>
				<path class="st3" d="M900.51,2335.03H488.14c-10.38,0-18.8-8.42-18.8-18.8v-58.83c0-10.38,8.42-18.8,18.8-18.8h412.37
					c10.38,0,18.8,8.42,18.8,18.8v58.83C919.31,2326.62,910.89,2335.03,900.51,2335.03z"/>
				<path class="st10" d="M1000.71,2412.22H387.94c-10.27,0-18.59-8.32-18.59-18.59v-81.29c0-10.27,8.32-18.59,18.59-18.59h612.77
					c10.27,0,18.59,8.32,18.59,18.59v81.29C1019.3,2403.9,1010.98,2412.22,1000.71,2412.22z"/>
			</g>
		</g>
	</g>
	<g>
		<path class="st9" d="M2563.91,1791.63c-1.15,0-2.31-0.31-3.36-0.95l-341.29-208.44c-20.89-12.76-45.79-18.35-70.13-15.77
			l-363.36,38.61c-3.56,0.39-6.73-2.2-7.1-5.74c-0.38-3.55,2.19-6.73,5.74-7.11l363.36-38.61c27.14-2.88,54.93,3.36,78.23,17.59
			l341.29,208.44c3.04,1.86,4,5.83,2.15,8.88C2568.21,1790.53,2566.08,1791.63,2563.91,1791.63z"/>
		<g>
			<linearGradient id="SVGID_2_" gradientUnits="userSpaceOnUse" x1="2158.2275" y1="1579.5171" x2="2158.2275" y2="2072.3044">
				<stop  offset="0.2932" style="stop-color:#A6D7F8"/>
				<stop  offset="0.4187" style="stop-color:#A2D2F7"/>
				<stop  offset="0.5644" style="stop-color:#96C4F6"/>
				<stop  offset="0.7202" style="stop-color:#83ADF3"/>
				<stop  offset="0.8819" style="stop-color:#698CF0"/>
				<stop  offset="1" style="stop-color:#5170ED"/>
			</linearGradient>
			<path class="st11" d="M2500.11,2071.24l-756.69-174.59c-22.19-5.12-36.03-27.26-30.91-49.45l54.38-235.72
				c5.12-22.19,27.26-36.03,49.45-30.91l756.69,174.59c22.19,5.12,36.03,27.26,30.91,49.45l-54.38,235.72
				C2544.44,2062.52,2522.3,2076.36,2500.11,2071.24z"/>
			<g>
				<path class="st12" d="M2549.54,1853.46l-382.39-88.23c-3.36-0.77-6.79,1.68-7.66,5.47l0,0c-0.88,3.8,1.13,7.5,4.49,8.28
					l382.39,88.23c3.36,0.77,6.79-1.68,7.66-5.47l0,0C2554.91,1857.94,2552.9,1854.23,2549.54,1853.46z"/>
			</g>
			<g>
				<path class="st12" d="M2516.09,1998.46l-382.39-88.23c-3.36-0.77-6.79,1.68-7.66,5.47l0,0c-0.88,3.8,1.13,7.5,4.49,8.28
					l382.39,88.23c3.36,0.77,6.79-1.68,7.66-5.47l0,0C2521.45,2002.94,2519.44,1999.23,2516.09,1998.46z"/>
			</g>
			<g>
				<path class="st12" d="M2449.78,1779.53l-271.48-62.64c-3.36-0.77-6.79,1.68-7.66,5.47v0c-0.88,3.8,1.13,7.5,4.49,8.28
					l271.48,62.64c3.36,0.77,6.79-1.68,7.66-5.47v0C2455.15,1784.01,2453.14,1780.31,2449.78,1779.53z"/>
				<path class="st12" d="M2489.51,1795.94L2489.51,1795.94c-0.88,3.8,1.13,7.5,4.49,8.28l63.52,14.66
					c3.36,0.77,6.79-1.68,7.66-5.47v0c0.88-3.8-1.13-7.5-4.49-8.28l-63.52-14.66C2493.81,1789.69,2490.38,1792.14,2489.51,1795.94z"
					/>
			</g>
			<path class="st12" d="M2248.75,1842.21L2248.75,1842.21c-0.88,3.8,1.13,7.5,4.49,8.28l281.98,65.06
				c3.36,0.77,6.79-1.68,7.66-5.47v0c0.88-3.8-1.13-7.5-4.49-8.28l-281.98-65.06C2253.06,1835.96,2249.63,1838.41,2248.75,1842.21z"
				/>
			<path class="st12" d="M2209.03,1825.8l-53.03-12.24c-3.36-0.77-6.79,1.68-7.66,5.47v0c-0.88,3.8,1.13,7.5,4.49,8.28l53.03,12.24
				c3.36,0.77,6.79-1.68,7.66-5.47v0C2214.39,1830.28,2212.38,1826.57,2209.03,1825.8z"/>
			<path class="st12" d="M2447.24,1938.91L2447.24,1938.91c-0.88,3.8,1.13,7.5,4.49,8.28l72.33,16.69c3.36,0.77,6.79-1.68,7.66-5.47
				v0c0.88-3.8-1.13-7.5-4.49-8.28l-72.33-16.69C2451.55,1932.66,2448.12,1935.11,2447.24,1938.91z"/>
			<path class="st12" d="M2381.09,1916.41l-236.25-54.51c-3.36-0.77-6.79,1.68-7.66,5.47v0c-0.88,3.8,1.13,7.5,4.49,8.28
				l236.25,54.51c3.36,0.77,6.79-1.68,7.66-5.47v0C2386.46,1920.89,2384.45,1917.18,2381.09,1916.41z"/>
			<g>
				<path class="st0" d="M2081.37,1956.26l-342.77-79.08c-7.68-1.77-12.46-9.43-10.69-17.11l57.96-251.21
					c1.77-7.68,9.43-12.46,17.11-10.69l342.77,79.08c7.68,1.77,12.46,9.43,10.69,17.11l-57.96,251.21
					C2096.71,1953.24,2089.05,1958.03,2081.37,1956.26z"/>
				<path class="st9" d="M2097.66,1949.1l9.35-40.52l-92.07-188.05l-137.49,108.32l-40.08-55.16l-103.33,59.78l-6.95,30.13
					c-1.32,5.72,2.25,11.44,7.97,12.76l349.84,80.72C2090.63,1958.4,2096.34,1954.83,2097.66,1949.1z"/>
				<circle class="st8" cx="1875.6" cy="1667.72" r="31.32"/>
			</g>
		</g>
	</g>
	<g>
		<g>
			<ellipse class="st13" cx="2224.23" cy="2498.97" rx="718.77" ry="100.33"/>
			<ellipse class="st14" cx="2224.23" cy="2498.97" rx="685.13" ry="95.64"/>
			<ellipse class="st15" cx="2224.23" cy="2498.97" rx="651.49" ry="90.94"/>
			<ellipse class="st16" cx="2224.23" cy="2498.97" rx="617.84" ry="86.25"/>
			<ellipse class="st17" cx="2224.23" cy="2498.97" rx="584.2" ry="81.55"/>
			<ellipse class="st18" cx="2224.23" cy="2498.97" rx="550.56" ry="76.85"/>
			<ellipse class="st19" cx="2224.23" cy="2498.97" rx="516.91" ry="72.16"/>
			<ellipse class="st20" cx="2224.23" cy="2498.97" rx="483.27" ry="67.46"/>
			<ellipse class="st21" cx="2224.23" cy="2498.97" rx="449.62" ry="62.76"/>
			<ellipse class="st22" cx="2224.23" cy="2498.97" rx="415.98" ry="58.07"/>
			<ellipse class="st23" cx="2224.23" cy="2498.97" rx="382.34" ry="53.37"/>
			<ellipse class="st24" cx="2224.23" cy="2498.97" rx="348.69" ry="48.67"/>
			<ellipse class="st25" cx="2224.23" cy="2498.97" rx="315.05" ry="43.98"/>
			<ellipse class="st26" cx="2224.23" cy="2498.97" rx="281.41" ry="39.28"/>
			<ellipse class="st27" cx="2224.23" cy="2498.97" rx="247.76" ry="34.59"/>
			<ellipse class="st28" cx="2224.23" cy="2498.97" rx="214.12" ry="29.89"/>
			<ellipse class="st29" cx="2224.23" cy="2498.97" rx="180.47" ry="25.19"/>
			<ellipse class="st30" cx="2224.23" cy="2498.97" rx="146.83" ry="20.5"/>
			<ellipse class="st31" cx="2224.23" cy="2498.97" rx="113.19" ry="15.8"/>
		</g>
		<g>
			<g>
				<linearGradient id="SVGID_3_" gradientUnits="userSpaceOnUse" x1="2174.7651" y1="2238.7756" x2="2492.3176" y2="2556.3284">
					<stop  offset="0" style="stop-color:#FFCD50"/>
					<stop  offset="1" style="stop-color:#FF7C06"/>
				</linearGradient>
				<path class="st32" d="M2554.55,2480.51h-442.03c-26.31,0-41.83-29.5-26.93-51.18l221.01-321.61c12.98-18.89,40.88-18.89,53.86,0
					l221.01,321.61C2596.38,2451.01,2580.86,2480.51,2554.55,2480.51z"/>
			</g>
			<g>
				<linearGradient id="SVGID_4_" gradientUnits="userSpaceOnUse" x1="2333.5413" y1="2142.2393" x2="2333.5413" y2="2431.8306">
					<stop  offset="0.1484" style="stop-color:#5170ED"/>
					<stop  offset="0.3149" style="stop-color:#4260DD"/>
					<stop  offset="0.6744" style="stop-color:#2542BE"/>
					<stop  offset="0.877" style="stop-color:#1A37B3"/>
				</linearGradient>
				<path class="st33" d="M2316.4,2341.54l-12.89-169.28c0-16.58,13.44-30.03,30.03-30.03h0c16.58,0,30.03,13.44,30.03,30.03
					l-12.71,169.26c-0.86,8.87-8.31,15.64-17.23,15.64l0,0C2324.72,2357.16,2317.27,2350.41,2316.4,2341.54z M2305.89,2404.08
					L2305.89,2404.08c0-15.33,12.43-27.75,27.75-27.75l0,0c15.33,0,27.75,12.43,27.75,27.75v0c0,15.33-12.43,27.75-27.75,27.75l0,0
					C2318.31,2431.83,2305.89,2419.4,2305.89,2404.08z"/>
			</g>
		</g>
	</g>
	<g>
		<path class="st8" d="M2205.52,1561.21c-4.37,4.11-9.81,7.09-15.88,8.42c7.46,1.98,14.72,4.71,21.63,8.19
			c3.75-2.64,7.15-5.76,10.05-9.3C2216.23,1565.7,2210.94,1563.28,2205.52,1561.21z"/>
		<path class="st9" d="M2152.98,1553.18c-1.74,0.11-3.48,0.25-5.22,0.44l-12.18,1.29c1.73,4.45,4.04,8.57,6.86,12.26l6.69-0.71
			c5.52-0.59,11.07-0.73,16.59-0.48C2160.43,1562.97,2155.99,1558.57,2152.98,1553.18z"/>
	</g>
	<g>
		<g>
			<ellipse class="st13" cx="1447.03" cy="2700.56" rx="874.2" ry="122.03"/>
			<ellipse class="st14" cx="1447.03" cy="2700.56" rx="833.29" ry="116.32"/>
			<ellipse class="st15" cx="1447.03" cy="2700.56" rx="792.37" ry="110.61"/>
			<ellipse class="st16" cx="1447.03" cy="2700.56" rx="751.45" ry="104.9"/>
			<ellipse class="st17" cx="1447.03" cy="2700.56" rx="710.53" ry="99.18"/>
			<ellipse class="st18" cx="1447.03" cy="2700.56" rx="669.61" ry="93.47"/>
			<ellipse class="st19" cx="1447.03" cy="2700.56" rx="628.69" ry="87.76"/>
			<ellipse class="st20" cx="1447.03" cy="2700.56" rx="587.77" ry="82.05"/>
			<ellipse class="st21" cx="1447.03" cy="2700.56" rx="546.85" ry="76.34"/>
			<ellipse class="st22" cx="1447.03" cy="2700.56" rx="505.93" ry="70.62"/>
			<ellipse class="st23" cx="1447.03" cy="2700.56" rx="465.01" ry="64.91"/>
			<ellipse class="st24" cx="1447.03" cy="2700.56" rx="424.1" ry="59.2"/>
			<ellipse class="st25" cx="1447.03" cy="2700.56" rx="383.18" ry="53.49"/>
			<ellipse class="st26" cx="1447.03" cy="2700.56" rx="342.26" ry="47.78"/>
			<ellipse class="st27" cx="1447.03" cy="2700.56" rx="301.34" ry="42.06"/>
			<ellipse class="st28" cx="1447.03" cy="2700.56" rx="260.42" ry="36.35"/>
			<ellipse class="st29" cx="1447.03" cy="2700.56" rx="219.5" ry="30.64"/>
			<ellipse class="st30" cx="1447.03" cy="2700.56" rx="178.58" ry="24.93"/>
			<ellipse class="st31" cx="1447.03" cy="2700.56" rx="137.66" ry="19.22"/>
		</g>
		<g>
			<g>
				<g>
					<path class="st12" d="M1191.44,2496.03l-3.67,205.02l574.45-19.25c0,0,23.08-131.94-91.25-175.64
						c-40.87-15.62-52.18-144.51-52.18-144.51L1191.44,2496.03z"/>
				</g>
				<path class="st8" d="M1189.53,2555.18l-1.77,99.02l101.5,0.04C1277.38,2606.41,1238.98,2568.29,1189.53,2555.18z"/>
				<g>
					<path class="st8" d="M1521.38,2496.27c56.61-28.12,95.13-34.34,118.46-34.21c-1.51-4.31-2.92-8.75-4.22-13.28
						c-25.88,0.63-65.3,8.27-120.59,35.74c-3.39,1.69-4.71,5.68-2.96,8.92C1513.82,2496.68,1517.96,2497.96,1521.38,2496.27z"/>
					<path class="st8" d="M1533.94,2534.09c64.98-32.28,106.14-35.71,127.84-33.79c-3.98-3.55-7.62-8.2-10.91-13.73
						c-25.81,0.15-66.01,7.32-123.29,35.76c-3.39,1.69-4.71,5.68-2.96,8.92C1526.38,2534.5,1530.53,2535.78,1533.94,2534.09z"/>
				</g>
				<path class="st34" d="M1763.2,2634.23l-574.6,20.7l-0.82,46.12l574.45-19.25C1762.22,2681.79,1765.77,2661.51,1763.2,2634.23z"
					/>
			</g>
			<g>
				<g>
					<path class="st10" d="M937.15,1372.34c0,0-129.84,46.96-68.21,282.26c1.91,7.3,7.9,12.81,5.58,19.99l-92.07,264.09
						l-176.81,433.73l408.87,22.1c0,0,96.08-359.23,120.76-503.5s0-466.1,0-466.1L937.15,1372.34z"/>
				</g>
				<g>
					<path class="st9" d="M1017.33,1510.09l227.78,346.28l-59.33,648.65l439.26-96.69c0,0-52.17-536.09-99.45-640.93
						c-78.11-173.18-223.42-370.57-364.02-394.01C1061.51,1356.71,1017.33,1510.09,1017.33,1510.09z"/>
				</g>
			</g>
			<path class="st35" d="M1374.94,1149.56c-22.99,1.92-45.9-4.47-64.55-18.05c-45.88-33.41-139.07-95.61-208.04-104.51
				c-68.52-8.84-67.58,131.28,18.38,214.47s256.54,113.68,263.49,116.43c13.9,5.5,211.41-226.73,211.41-226.73L1374.94,1149.56z"/>
			<path class="st36" d="M959,1063.79c0,0,21.31-67.47,142.84-37.14c168.52,42.06,138.4,417.03,138.4,417.03l-164.05,60.45
				l-158.52-53.49L959,1063.79z"/>
			<path class="st10" d="M1242.23,1365.25c-1.29-106.27-19.08-287.84-122-332.32c8.91,6.05,26.88,25.79,53.68,90.02
				c39.88,95.58,27.59,284.46,27.59,284.46L1242.23,1365.25z"/>
			<path class="st10" d="M1240.26,1443.36c0.01-0.12,0.02-0.32,0.04-0.52c0.01-0.11,0.02-0.22,0.03-0.36
				c0.01-0.2,0.03-0.46,0.05-0.7c0.02-0.34,0.05-0.72,0.08-1.15c0.02-0.25,0.03-0.49,0.05-0.77c0.02-0.32,0.04-0.68,0.07-1.05
				c0.02-0.27,0.03-0.55,0.05-0.84c0.02-0.4,0.05-0.8,0.08-1.24c0.02-0.33,0.04-0.7,0.06-1.05c0.05-0.87,0.1-1.8,0.16-2.8
				c0.02-0.32,0.03-0.63,0.05-0.96c0.03-0.63,0.07-1.29,0.1-1.96c0.02-0.31,0.03-0.63,0.05-0.95c0.12-2.41,0.24-5.1,0.36-8.04
				c0.01-0.29,0.02-0.57,0.04-0.87c0.04-0.92,0.07-1.87,0.11-2.84c0.01-0.35,0.03-0.71,0.04-1.07c0.12-3.27,0.22-6.79,0.32-10.54
				c0.01-0.29,0.01-0.57,0.02-0.86c0.03-1.2,0.06-2.42,0.08-3.66c0.01-0.35,0.01-0.71,0.02-1.07c0.08-3.98,0.14-8.18,0.17-12.57
				c0-0.38,0.01-0.76,0.01-1.14c0.01-1.37,0.02-2.76,0.02-4.17c0-0.47,0-0.94,0-1.41c0.01-4.46-0.01-9.1-0.06-13.9
				c-0.01-0.57-0.01-1.15-0.02-1.72c-0.02-1.44-0.04-2.89-0.06-4.35c-0.01-0.67-0.02-1.34-0.04-2.01
				c-0.09-4.77-0.21-9.68-0.37-14.71c-0.02-0.77-0.05-1.54-0.08-2.32c-0.05-1.48-0.1-2.98-0.16-4.48c-0.03-0.87-0.07-1.74-0.11-2.62
				c-0.14-3.53-0.31-7.1-0.49-10.73l-23.64-62.48l-122.06,18.31c0,0-4.62-210.9-72.69-259.36c0,0-0.01,0-0.01,0
				c-0.49,0.07-0.88,0.12-1.34,0.19c-8.3,1.36-15.51,3.43-21.83,5.92c14.52,15.02,24.07,68.36,33,141.24
				c11.72,95.59-5.55,149.45-5.55,149.45s-44.18,44.14-98.82,36.79l-10.32,96.63l158.52,53.49l164.05-60.45c0,0,0.01-0.1,0.02-0.24
				C1240.25,1443.42,1240.25,1443.38,1240.26,1443.36z"/>
			
				<linearGradient id="SVGID_5_" gradientUnits="userSpaceOnUse" x1="1625.835" y1="857.9732" x2="1001.5007" y2="1939.3519" gradientTransform="matrix(1.0303 -0.0944 0.094 1.0262 -178.2897 94.4954)">
				<stop  offset="0" style="stop-color:#FFCD50"/>
				<stop  offset="1" style="stop-color:#FF7C06"/>
			</linearGradient>
			<path class="st37" d="M1775.34,1003.97c0,0-13.5-53.82-24.89-96.24c-4.39-16.35-27.43-16.9-33.51-0.8l-24.62,65.26
				c-9.85,26.11-38.89,39.91-64.86,30.84l-36.65-12.81c-25.97-9.08-39.04-37.6-29.19-63.71l27.4-72.63c1.9-5.05-2.57-10-7.8-8.63
				l-29.2,7.65c-21.13,5.54-56.09,57.09-70.45,116.22c-14.46,59.53,42.54,74.94-27.99,151.07l-399.18,494.61l0.48,0.45l-56.61,69.94
				c-0.65,0.15-1.3,0.29-1.94,0.45l-99.58,25.93c-42.42,11.05-68.77,53.98-58.85,95.9c0,0,13.42,53.84,24.75,96.28
				c4.37,16.36,27.4,16.94,33.5,0.85l24.72-65.22c9.89-26.09,38.95-39.86,64.91-30.74l36.63,12.86
				c25.96,9.11,38.98,37.65,29.09,63.75l-27.51,72.59c-1.91,5.04,2.56,10.01,7.79,8.65l29.21-7.61
				c21.14-5.51,56.17-57.01,70.62-116.12c14.55-59.51-42.43-75,28.21-151.03l455.31-565.24c0.65-0.15,1.3-0.29,1.94-0.46
				l99.54-26.07C1759.03,1088.85,1785.32,1045.87,1775.34,1003.97z"/>
			<g>
				<g>
					<path class="st38" d="M1574.83,1179.35c0,0-42.53,48.13-80.55,29.54c-38.02-18.59-51.26-73.85-51.26-73.85l-17.47,4.4
						c-7.5,1.89-13.81,7-17.27,13.97l-9.2,18.55h-2.8c-14.63,0-26.49,11.96-26.49,26.72l-9.22,12.53
						c-11.79,2.97-20.07,13.66-20.07,25.92v16.06l0,0c-8.98,4.53-14.65,13.78-14.65,23.9v25.09c0,0,7.01,33.05,43.94,47.01
						c34.41,13.01,66.29,15.84,86.74,15.95c13.42,0.07,25.1-9.25,28.35-22.38l2.07-8.34l0,0c16.18,0,29.29-13.23,29.29-29.54v-7.39
						l10.51-5.3c11.51-5.81,18.78-17.67,18.78-30.65v-15.75l16.77-10.15c11.97-7.24,18.33-21.13,16.04-35.02L1574.83,1179.35z"/>
					<path class="st39" d="M1394.21,1165.92c-1.58,7.54-1.21,15.08,1.3,22.39c2.4,6.98,6.03,13.44,9.22,20.08
						c6.67,13.9,15.2,26.16,24.49,38.43c2.88,3.8,7.63,5.79,12.11,3.17c3.75-2.19,6.08-8.27,3.17-12.11
						c-8.39-11.08-16.81-22.25-22.82-34.85c-4.66-9.78-12.76-21.15-10.4-32.41c0.98-4.67-1.37-9.56-6.18-10.88
						C1400.71,1158.54,1395.19,1161.22,1394.21,1165.92L1394.21,1165.92z"/>
					<path class="st39" d="M1423.65,1272.8c-10.61-10.74-20.58-22.21-29.18-34.64c-3.84-5.55-7.44-11.3-10.47-17.34
						c-2.26-4.49-3.88-8.23-4.85-14.03c-0.79-4.72-6.62-7.35-10.88-6.18c-5,1.37-6.97,6.15-6.18,10.88
						c2.16,12.87,9.81,25.04,17.1,35.59c9.44,13.66,20.28,26.41,31.94,38.22C1419.15,1293.43,1431.66,1280.91,1423.65,1272.8
						L1423.65,1272.8z"/>
					<path class="st39" d="M1336.52,1258.4c4.56,9.13,9.98,17.84,15.81,26.2c6.69,9.61,13.96,18.93,22.19,27.28
						c3.25,3.3,9.3,3.5,12.51,0c3.26-3.55,3.47-8.99,0-12.51c-8.11-8.23-13.73-15.46-19.91-24.41
						c-5.64-8.15-10.89-16.62-15.32-25.49c-2.07-4.15-8.27-5.65-12.11-3.17C1335.45,1249.03,1334.31,1253.96,1336.52,1258.4
						L1336.52,1258.4z"/>
					<path class="st39" d="M1325.85,1305.14c-3.26,0-5.9-2.64-5.9-5.9v-25.09c0-10.28,9.99-21.64,14.65-26.37v-13.59
						c0-14.99,10.09-28,24.53-31.64l4.77-1.2v-5.61c0-17.69,14.06-32.14,31.52-32.61l7.58-15.28c4.23-8.53,11.93-14.75,21.11-17.07
						l23.25-5.86l1.4,5.8c0.13,0.53,13.09,52.8,48.12,69.93c2.93,1.43,4.14,4.96,2.71,7.89c-1.43,2.93-4.97,4.14-7.89,2.71
						c-32.99-16.13-48.16-56.84-52.8-72.02l-11.9,3c-5.84,1.47-10.73,5.44-13.43,10.87l-10.82,21.83h-6.46
						c-11.36,0-20.59,9.34-20.59,20.82v14.8l-13.68,3.45c-9.19,2.32-15.61,10.62-15.61,20.2v18.61l-1.85,1.75
						c-5.31,5.01-12.79,14.41-12.79,19.61v25.09C1331.75,1302.5,1329.11,1305.14,1325.85,1305.14z"/>
				</g>
			</g>
			<g>
				<g>
					<path class="st12" d="M604.99,2365.69l-57.59,182.54l519.3,134.93c0,0,55.61-111.99-35.16-181.39
						c-32.45-24.8-8.42-143.18-8.42-143.18L604.99,2365.69z"/>
				</g>
				<path class="st8" d="M587.62,2418.13l-27.82,88.17l90.85,26.92C652.68,2487.26,628.4,2442.96,587.62,2418.13z"/>
				<g>
					<path class="st8" d="M900.26,2453.3c58.12-10.18,94.25-5.54,115.1,0.76c-0.21-4.26-0.3-8.6-0.26-13
						c-23.33-6.3-60.64-9.89-117.41,0.04c-3.48,0.61-5.72,3.83-5.01,7.2C893.38,2451.66,896.76,2453.91,900.26,2453.3z"/>
					<path class="st8" d="M901.49,2490.48c66.71-11.68,104.47-3.85,123.38,3.62c-2.62-4.24-4.65-9.36-6.13-15.17
						c-23.14-6.71-61.03-10.94-119.83-0.65c-3.48,0.61-5.72,3.83-5.01,7.2C894.61,2488.85,897.99,2491.09,901.49,2490.48z"/>
				</g>
				<path class="st34" d="M1080.17,2640.84l-519.82-133.67l-12.95,41.06l519.3,134.93
					C1066.7,2683.16,1075.25,2665.95,1080.17,2640.84z"/>
			</g>
			<g>
				<g>
					<g>
						<path class="st38" d="M1025.83,966.62l-5.67,55.1c0,0,36.11,53.61,78.2,36.18c42.09-17.43,15.73-58.49,15.73-58.49
							L1025.83,966.62z"/>
						<path class="st38" d="M1147.63,867.35c-12.89-51.23-79.83-67.27-121.12-46.25c-38,19.35-51.79,67.3-33.8,111.12
							c-1.21,0.4-2.4,0.89-3.55,1.53c-10.77,5.96-13.92,20.13-7.03,31.65c6.89,11.52,21.2,16.03,31.98,10.07
							c2.11-1.17,3.92-2.66,5.43-4.38c28.18,26.24,74.8,54.67,106.69,38.43C1167.53,988.48,1162.59,926.81,1147.63,867.35z"/>
						<g>
							
								<ellipse transform="matrix(0.8775 -0.4795 0.4795 0.8775 -305.7274 622.6748)" class="st12" cx="1066.1" cy="909.83" rx="6.52" ry="12.73"/>
							
								<ellipse transform="matrix(0.8775 -0.4795 0.4795 0.8775 -285.5353 645.0934)" class="st12" cx="1120.08" cy="881.52" rx="6.52" ry="12.73"/>
							<path class="st39" d="M1104.63,950.99c-1.32,0-2.52-0.89-2.85-2.23c-0.4-1.58,0.56-3.17,2.14-3.57
								c4.5-1.13,12.44-3.41,14.57-4.74c0.67-0.42,1.03-0.98,1.1-1.73c0.09-1-0.25-3.85-5.45-8.62
								c-8.61-7.9-18.02-22.98-18.42-23.62c-0.86-1.38-0.43-3.19,0.95-4.05c1.38-0.86,3.2-0.44,4.05,0.94
								c0.09,0.15,9.39,15.04,17.4,22.39c5.25,4.82,7.71,9.36,7.33,13.5c-0.24,2.59-1.61,4.78-3.86,6.18
								c-3.61,2.24-14.97,5.13-16.25,5.45C1105.1,950.96,1104.86,950.99,1104.63,950.99z"/>
							<path class="st39" d="M1097.87,979.79c-8.07,0-14.78-1.68-15.26-1.81c-1.57-0.4-2.52-2.01-2.12-3.58
								c0.4-1.57,2.01-2.53,3.58-2.12c0.18,0.04,17.89,4.47,28.73-1.51c1.42-0.79,3.21-0.27,4,1.16c0.79,1.42,0.27,3.21-1.16,4
								C1110.23,978.91,1103.7,979.79,1097.87,979.79z"/>
						</g>
					</g>
					<g>
						<g>
							<linearGradient id="SVGID_6_" gradientUnits="userSpaceOnUse" x1="1122.4386" y1="755.3234" x2="941.1976" y2="936.5645">
								<stop  offset="0.2061" style="stop-color:#3644A2"/>
								<stop  offset="0.3244" style="stop-color:#2D3588"/>
								<stop  offset="0.5309" style="stop-color:#1F1E5F"/>
								<stop  offset="0.7195" style="stop-color:#150E42"/>
								<stop  offset="0.8821" style="stop-color:#0F0430"/>
								<stop  offset="1" style="stop-color:#0D002A"/>
							</linearGradient>
							<path class="st40" d="M989.16,933.75c1.15-0.63,2.34-1.12,3.55-1.53c-17.99-43.82-4.21-91.77,33.8-111.12
								c32.36-16.48,72.66-7.32,100.91,19.82c18.04-20.54,20.61-46.6,9.01-69.03c-16.01-30.97-64.54-27.45-109.58-5
								c-45.03,22.45-39.84,60.32-47.06,67.22s-34.16,3.5-50.47,31.07c-8.16,13.79-7.93,29.62-2.25,44.12
								c13.62,34.73,35.05,48.59,53.75,53.6C975.74,951.9,979.15,939.28,989.16,933.75z"/>
						</g>
						<linearGradient id="SVGID_7_" gradientUnits="userSpaceOnUse" x1="1126.2766" y1="759.1613" x2="969.5999" y2="915.838">
							<stop  offset="0.2061" style="stop-color:#3644A2"/>
							<stop  offset="0.2598" style="stop-color:#333E98"/>
							<stop  offset="0.6078" style="stop-color:#1E1D5D"/>
							<stop  offset="0.8643" style="stop-color:#120838"/>
							<stop  offset="1" style="stop-color:#0D002A"/>
						</linearGradient>
						<path class="st41" d="M1018.66,963.19c0,0-73.42-48.1-11.91-130.84c5.92-7.96-24.94-43.01,20.1-65.46
							c45.03-22.45,93.57-25.97,109.58,5s5.04,68.86-36.39,89.59c-41.43,20.72-88.04,29.02-93.72,56.96
							S1018.66,963.19,1018.66,963.19z"/>
					</g>
					<path class="st12" d="M998.01,931.74c-1.1,0.08-2.21-0.39-2.86-1.34c-0.55-0.81-13.37-20.19,5.25-48.06
						c9.48-14.19,34.89-22.52,61.8-31.33c23-7.54,46.79-15.33,57.54-26.54c22.14-23.09,9.42-73.19,9.29-73.7
						c-0.42-1.62,0.61-3.26,2.3-3.68c1.7-0.41,3.4,0.56,3.82,2.18c0.57,2.18,13.67,53.77-10.78,79.27
						c-11.84,12.35-36.41,20.4-60.17,28.19c-24.69,8.09-50.22,16.45-58.5,28.85c-16.31,24.41-5.72,40.82-5.26,41.51
						c0.93,1.4,0.51,3.27-0.95,4.18C999.03,931.55,998.52,931.71,998.01,931.74z"/>
				</g>
				<path class="st12" d="M954.46,931.55c-1.03,0.08-2.08-0.33-2.75-1.18c-0.33-0.42-32.94-42.63-1.1-67.64
					c13.28-10.44,28.17-4.72,36.3,1.18c3.85-5.48,13.24-16.91,28.94-24.59c16.05-7.85,30.64-9.83,43.51-11.57
					c17.05-2.31,30.52-4.13,41.63-18.3c18.35-23.41-2.79-46.4-3.7-47.36c-1.16-1.23-1.05-3.14,0.24-4.27
					c1.3-1.12,3.28-1.03,4.45,0.2c0.26,0.27,25.55,27.6,4.04,55.04c-12.69,16.19-28.04,18.26-45.82,20.67
					c-12.38,1.67-26.41,3.57-41.51,10.96c-19.03,9.31-28.19,25.06-28.28,25.22c-0.47,0.83-1.32,1.4-2.29,1.55
					c-0.98,0.14-1.96-0.15-2.66-0.8c-0.66-0.6-16.36-14.66-30.86-3.26c-27.14,21.32,0.96,57.79,2.17,59.33
					c1.04,1.33,0.76,3.22-0.63,4.23C955.62,931.31,955.04,931.5,954.46,931.55z"/>
			</g>
			<path class="st8" d="M1212.61,1483.78c-10.33-6.48-21.67-10.47-33.24-12.13l-59.25,61.74l-65.7,81.41l0.48,0.45l-44.06,54.44
				c18.72,5.49,37.03,7.85,54.98,6.22c41.42-3.77,126.41-40.75,126.41-40.75l11.29,2.34l83.82-104.06
				C1264.03,1516.64,1236.13,1498.54,1212.61,1483.78z"/>
			<g>
				<path class="st38" d="M977.38,1041.12c-43.26-2.51-169.37,152.95-202.44,198.16s-128.78,167.67-22.05,255.6
					s200.94,166.43,287.29,158.58c43.79-3.98,133.63-43.07,133.63-43.07l51.21,10.63c19.96-5.57,38.98,28.93,54.59,13.32
					c9.45-9.45,38.86-34.5,47.23-47.23c10.5-15.98,3.53-35.99-11.89-51.41c-22.88-22.88-77.78-59.1-119.59-85.34
					c-31.61-19.83-72.14-18.16-102,4.24l-45.33,34c0,0-117.76-99.69-117.76-133.46c0-15.7,82.08-217.48,84.22-265.75
					C1014.5,1089.39,1020.64,1043.62,977.38,1041.12z"/>
				<path class="st39" d="M1192.37,1464.77c1.17,0.46,2.34,0.94,3.51,1.42c-2.05-0.84,1.67,0.73,2.11,0.92
					c2.69,1.19,5.36,2.43,8,3.71c5.63,2.73,11.17,5.64,16.63,8.7c11.72,6.56,23.08,13.77,34.02,21.56
					c11.04,7.85,21.18,15.97,31.45,25.71c4.66,4.43,9.16,9.04,13.38,13.88c1.01,1.16,2.01,2.33,2.98,3.52
					c0.42,0.5,2.78,3.49,1.89,2.32c1.76,2.29,3.44,4.66,5.03,7.07c1.73,2.63,3.35,5.33,4.82,8.12c0.67,1.27,1.31,2.56,1.91,3.86
					c0.15,0.34,1.12,2.72,0.26,0.54c0.27,0.69,0.55,1.39,0.81,2.09c0.91,2.47,1.66,5,2.21,7.58c0.14,0.68,0.23,1.37,0.38,2.04
					c0.43,1.91-0.06-1.91,0.02,0.19c0.05,1.34,0.19,2.67,0.21,4.01c0.43-1.59,0.86-3.18,1.29-4.77c0.19-0.29-2.05,2.84-1.14,1.59
					c-1.02,0.55-1.07,0.65-0.16,0.3c-0.28,0.08-0.55,0.17-0.83,0.25c1.12-0.08,1.11-0.1-0.02-0.06c1.07,0.22,1.04,0.21-0.1-0.04
					c-1.03-0.37-1.17-0.37-0.41-0.01c-0.46-0.21-0.91-0.44-1.36-0.68c-4.84-2.62-8.74-6.97-12.56-11.11
					c-8.25-8.97-21.58,4.42-13.36,13.36c7.18,7.81,16.07,16.8,27.35,17.34c5.56,0.27,10.97-2.26,14.82-6.18
					c2.35-2.39,4.66-5.38,5.19-8.74c0.29-1.86,0.12-3.74-0.07-5.6c-1.52-14.35-8.17-27.44-16.65-38.93
					c-20.7-28.04-49.66-49.98-79.14-68.09c-15.13-9.3-30.92-17.59-47.45-24.11c-4.75-1.87-10.37,2.05-11.62,6.6
					C1184.3,1458.51,1187.6,1462.89,1192.37,1464.77L1192.37,1464.77z"/>
				<path class="st39" d="M1163.36,1493.7c20.33,6.05,38.88,13.96,56.98,25.21c17.84,11.08,33.1,23.93,48.69,38.22
					c9.58,8.78,18.7,17.89,27.01,27.89c1.1,1.33,2.18,2.67,3.25,4.02c-1.25-1.58,0.37,0.5,0.66,0.88c0.6,0.81,1.2,1.63,1.78,2.46
					c1.82,2.59,3.51,5.27,4.95,8.09c0.58,1.13,0.57,1.71,0.08,0.07c0.17,0.56,0.37,1.12,0.56,1.67c0.18,0.51,0.24,2.01,0.16,0.28
					c-0.12-2.53-0.39,2.12,0.05-0.56c0.28-1.72,0.15-0.92,0.05-0.56c-0.33,1.23,0.63-1.43,0.58-1.34c-0.22,0.42-0.15,0.77,0.36-0.43
					c0.7-1.66,0.4-0.17-0.39,0.15c-0.87,0.36,0.1-0.1,0.33-0.25c-0.33,0.21-0.65,0.42-0.98,0.61c-1.86,1.07,0.87,0.03-1.15,0.5
					c-0.47,0.11-0.95,0.22-1.42,0.34c-1.23,0.33,1.62-0.03,0.34-0.07c-0.99-0.03-1.97,0.01-2.95-0.05c-1.1-0.06,0.56,0.08,0.64,0.1
					c-0.63-0.13-1.26-0.24-1.88-0.4c-1.02-0.25-2.02-0.58-3.02-0.91c-0.38-0.13-0.75-0.28-1.13-0.42c0.84,0.31,0.83,0.4,0.01,0
					c-0.99-0.48-1.98-0.95-2.95-1.48c-1.94-1.05-3.81-2.21-5.63-3.45c-0.89-0.6-1.76-1.22-2.62-1.86c-0.32-0.23-0.63-0.47-0.94-0.71
					c-0.93-0.7,1.16,0.98-0.19-0.16c-1.4-1.19-2.83-2.33-4.2-3.56c-1.74-1.55-3.43-3.16-5.08-4.81c-8.61-8.6-21.97,4.75-13.36,13.36
					c10.87,10.86,24.8,22.11,40.72,23.22c8.78,0.61,20.79-4.2,23.17-13.55c1.88-7.38-2.24-14.98-6.16-20.96
					c-7.79-11.88-17.68-22.76-27.84-32.67c-16.03-15.61-33.24-30.45-51.63-43.21c-21.93-15.21-46.27-26.3-71.82-33.9
					C1156.71,1472.01,1151.72,1490.24,1163.36,1493.7L1163.36,1493.7z"/>
				<path class="st39" d="M1170.34,1534.15c30.17,9.9,59.3,29.1,82.47,51.13c5.24,4.98,10.26,10.22,14.85,15.81
					c0.52,0.63,1.03,1.28,1.55,1.92c1.68,2.08-1.08-1.51,0.47,0.61c0.82,1.13,1.65,2.25,2.44,3.4c1.63,2.37,3.16,4.82,4.51,7.36
					c0.58,1.09,1.08,2.21,1.62,3.32c-1.03-2.13-0.06-0.12,0.28,0.9c0.33,0.98,0.59,1.98,0.84,2.98c0.07,0.29,0.36,1.13,0.27,1.42
					c-0.22-1.74-0.27-2.13-0.17-1.14c0.02,0.29,0.04,0.59,0.05,0.88c-0.01,0.25-0.02,0.6,0,0.86c0.18,1.82-0.82-0.38,0.19-0.87
					c-0.01,0.01-0.58,2.28-0.59,2.27c-0.39-0.42,1.23-2.44,0.3-0.88c-0.95,1.58,0.28-0.79,0.61-0.66c-0.02-0.01-0.72,0.8-0.79,0.86
					c-0.74,0.65-0.71,1.49,0.67-0.44c-0.4,0.56-1.54,0.97-2.12,1.3c-1.05,0.52-1.18,0.59-0.39,0.21c-0.57,0.2-1.15,0.36-1.75,0.5
					c-2.2,0.65,1.28,0.29-0.93,0.07c-0.57,0.01-1.13-0.02-1.69-0.07c1.11,0.17,1.12,0.15,0.01-0.06c-0.54-0.17-1.1-0.28-1.64-0.45
					c-0.54-0.17-1.08-0.36-1.61-0.57c0.94,0.39,0.9,0.35-0.1-0.12c-1.77-1.06-3.52-2.05-5.2-3.26c1.55,1.12-0.73-0.59-0.85-0.69
					c-0.88-0.73-1.74-1.48-2.58-2.25c-1.19-1.08-2.35-2.19-3.5-3.31c-2.48-2.4-4.92-4.72-7.72-6.76c-4.13-3-10.53-0.7-12.92,3.39
					c-2.79,4.78-0.75,9.91,3.39,12.92c-2.49-1.81,0.29,0.34,1.12,1.13c1.12,1.06,2.22,2.14,3.33,3.21c3.12,3.01,6.37,5.82,9.85,8.4
					c7.38,5.49,16.44,8.67,25.64,6.72c14.22-3.01,20.8-15.93,16.9-29.35c-3.8-13.09-13.31-24.5-22.41-34.28
					c-12.36-13.29-26.61-24.9-41.53-35.2c-17.82-12.3-37.22-22.67-57.84-29.43c-4.85-1.59-10.31,1.85-11.62,6.6
					C1162.33,1527.66,1165.47,1532.55,1170.34,1534.15L1170.34,1534.15z"/>
				<path class="st39" d="M1184.23,1572.92c1.25,0.45,2.5,0.91,3.74,1.39c0.46,0.18,0.92,0.37,1.38,0.55
					c1.52,0.61-1.03-0.46,0.46,0.19c2.22,0.95,4.4,1.98,6.55,3.07c4.12,2.08,8.11,4.4,11.96,6.95c1.82,1.21,3.6,2.48,5.35,3.79
					c1.19,0.89-1.04-0.84,0.1,0.08c0.33,0.26,0.66,0.52,0.98,0.79c0.96,0.78,1.9,1.57,2.82,2.39c2.88,2.53,5.61,5.23,8.12,8.13
					c0.54,0.63,1.06,1.27,1.59,1.91c1.08,1.3-0.84-1.22,0.39,0.53c0.98,1.4,1.95,2.81,2.81,4.29c0.32,0.56,2.27,3.34,2.02,3.92
					c0.19-0.45-0.78-2.07-0.04,0.03c0.23,0.65,0.44,1.31,0.62,1.98c0.15,0.55,0.23,1.13,0.39,1.68c0.36,1.23-0.08-2.45-0.04-0.19
					c0.01,0.52,0.02,1.04,0.03,1.56c0,0.22-0.04,0.43-0.03,0.65c0.06,1.43,0.45-1.69,0.15-1.04c-0.17,0.37-0.25,0.99-0.34,1.4
					c-0.42,1.92,0.77-1.11,0.18-0.38c-0.23,0.29-0.63,0.9-0.74,1.22c-0.33,0.95,1.53-1.54,0.71-0.93c-0.24,0.18-0.53,0.55-0.73,0.77
					c-1.4,1.57,1.33-0.86,0.19-0.08c-0.29,0.2-0.68,0.37-0.95,0.58c0.39-0.31,1.63-0.69,0.41-0.3c1.86-0.59,1.21-0.04,0.46-0.12
					c-0.29-0.03-2.32-0.25-0.95-0.01c1.24,0.22-0.08-0.05-0.26-0.11c-0.65-0.2-1.3-0.34-1.95-0.56c-0.25-0.08-1.89-0.67-0.83-0.26
					c1.05,0.41-1.23-0.59-1.21-0.58c-1.02-0.51-2.02-1.07-2.99-1.66c-0.94-0.57-1.84-1.2-2.74-1.82c-1.48-1.01-0.18-0.16,0.09,0.08
					c-0.53-0.45-1.05-0.9-1.56-1.37c-3.75-3.46-9.65-3.71-13.36,0c-3.5,3.5-3.77,9.89,0,13.36c7.8,7.19,20.66,14.7,31.59,10.87
					c8.37-2.93,13.47-11.08,13.76-19.73c0.25-7.61-3.22-15.29-7.41-21.45c-5.72-8.41-13-15.3-21.05-21.44
					c-10.47-7.98-22.27-13.93-34.64-18.36c-4.66-1.67-10.54,1.88-11.62,6.6C1176.43,1566.6,1179.25,1571.13,1184.23,1572.92
					L1184.23,1572.92z"/>
				<g>
					<path class="st36" d="M760.01,1259.79c5.62-7.91,10.77-14.83,14.93-20.52c33.07-45.21,159.18-200.66,202.44-198.16
						c10.82,0.63,18.54,3.96,24.05,8.6c16.52,13.93,13.07,39.67,13.07,39.67c-2.14,48.27-84.22,250.05-84.22,265.75
						c0,1.52,0.31,3.21,0.77,4.98C897.03,1337.33,805.28,1285.25,760.01,1259.79z"/>
					<path class="st35" d="M761.86,1257.2c18.66,10.58,129.95,73.83,163.56,95.63c0.74-2.11,1.7-4.82,2.96-8.34
						c11.83-33.25,43.24-121.57,62.47-186.98c0.74-2.5,3.37-3.92,5.86-3.2c2.5,0.73,3.94,3.36,3.2,5.86
						c-19.31,65.67-50.79,154.17-62.64,187.48c-2.47,6.94-4.44,12.47-4.78,13.56c-0.13,0.55-0.36,1.07-0.67,1.54l0,0
						c-0.31,0.47-0.71,0.88-1.19,1.22c-0.81,0.58-1.77,0.87-2.73,0.87c-0.92,0-1.83-0.27-2.63-0.8
						c-32.23-21.58-152.63-89.88-168.89-99.09C758.25,1262.26,760.08,1259.68,761.86,1257.2z"/>
				</g>
			</g>
		</g>
	</g>
</g>
</svg>
